<?xml version="1.0" encoding="UTF-8" standalone="no"?>
<svg
   xmlns:dc="http://purl.org/dc/elements/1.1/"
   xmlns:cc="http://creativecommons.org/ns#"
   xmlns:rdf="http://www.w3.org/1999/02/22-rdf-syntax-ns#"
   xmlns:svg="http://www.w3.org/2000/svg"
   xmlns="http://www.w3.org/2000/svg"
   xmlns:xlink="http://www.w3.org/1999/xlink"
   id="svg8"
   version="1.1"
   viewBox="0 0 102.21098 26.842453"
   height="26.842453mm"
   width="102.21098mm">
  <defs
     id="defs2">
    <linearGradient
       id="linearGradient886">
      <stop
         id="stop882"
         offset="0"
         style="stop-color:#de8787;stop-opacity:1;" />
      <stop
         id="stop884"
         offset="1"
         style="stop-color:#9697b6;stop-opacity:0" />
    </linearGradient>
    <filter
       height="1.117467"
       y="-0.058733519"
       width="1.0212574"
       x="-0.01062868"
       id="filter867"
       style="color-interpolation-filters:sRGB">
      <feGaussianBlur
         id="feGaussianBlur869"
         stdDeviation="0.33663063" />
    </filter>
    <linearGradient
       gradientUnits="userSpaceOnUse"
       y2="73.272118"
       x2="143.71826"
       y1="73.272118"
       x1="21.889557"
       id="linearGradient888"
       xlink:href="#linearGradient886" />
    <linearGradient
       y2="73.272118"
       x2="143.71826"
       y1="73.272118"
       x1="21.889557"
       gradientUnits="userSpaceOnUse"
       id="linearGradient890"
       xlink:href="#linearGradient886" />
    <linearGradient
       y2="73.272118"
       x2="143.71826"
       y1="73.272118"
       x1="21.889557"
       gradientUnits="userSpaceOnUse"
       id="linearGradient892"
       xlink:href="#linearGradient886" />
    <linearGradient
       y2="73.272118"
       x2="143.71826"
       y1="73.272118"
       x1="21.889557"
       gradientUnits="userSpaceOnUse"
       id="linearGradient894"
       xlink:href="#linearGradient886" />
    <linearGradient
       y2="73.272118"
       x2="143.71826"
       y1="73.272118"
       x1="21.889557"
       gradientUnits="userSpaceOnUse"
       id="linearGradient896"
       xlink:href="#linearGradient886" />
    <linearGradient
       y2="73.272118"
       x2="143.71826"
       y1="73.272118"
       x1="21.889557"
       gradientUnits="userSpaceOnUse"
       id="linearGradient898"
       xlink:href="#linearGradient886" />
  </defs>
  <metadata
     id="metadata5">
    <rdf:RDF>
      <cc:Work
         rdf:about="">
        <dc:format>image/svg+xml</dc:format>
        <dc:type
           rdf:resource="http://purl.org/dc/dcmitype/StillImage" />
        <dc:title></dc:title>
      </cc:Work>
    </rdf:RDF>
  </metadata>
  <g
     transform="translate(-38.297462,-64.159135)"
     id="layer1">
    <g
       transform="matrix(1.3031255,0,0,1.3031255,-11.608939,-19.448275)"
       id="text825"
       style="font-style:normal;font-variant:normal;font-weight:normal;font-stretch:normal;font-size:19.75555611px;line-height:1.25;font-family:'Cooper Black';-inkscape-font-specification:'Cooper Black, Normal';font-variant-ligatures:normal;font-variant-caps:normal;font-variant-numeric:normal;font-feature-settings:normal;text-align:start;letter-spacing:0px;word-spacing:0px;writing-mode:lr-tb;text-anchor:start;opacity:0.7;fill:url(#linearGradient888);fill-opacity:1;stroke:none;stroke-width:0.26458332;filter:url(#filter867)"
       aria-label="ABOUT">
      <path
         id="path871"
         style="font-style:normal;font-variant:normal;font-weight:normal;font-stretch:normal;font-size:19.75555611px;font-family:'Cooper Black';-inkscape-font-specification:'Cooper Black, Normal';font-variant-ligatures:normal;font-variant-caps:normal;font-variant-numeric:normal;font-feature-settings:normal;text-align:start;writing-mode:lr-tb;text-anchor:start;fill:url(#linearGradient890);fill-opacity:1;stroke-width:0.26458332"
         d="m 51.962602,73.940894 1.823145,3.906738 q 0.260449,0.540191 0.434082,0.713824 0.173632,0.163987 0.530544,0.221864 0.694532,0.106109 0.694532,0.704178 0,0.704177 -0.848872,1.012858 -0.848871,0.30868 -2.778125,0.30868 -2.180056,0 -3.2315,-0.183279 -0.482313,-0.08682 -0.771701,-0.347265 -0.279742,-0.270096 -0.279742,-0.6463 0,-0.289388 0.144694,-0.443729 0.15434,-0.163986 0.559484,-0.299034 0.453374,-0.15434 0.453374,-0.520898 0,-0.6463 -0.781347,-0.762056 -0.839226,-0.115755 -2.363336,-0.115755 -1.282954,0 -1.533757,0.154341 -0.15434,0.09646 -0.270095,0.347265 -0.115755,0.250803 -0.115755,0.482314 0,0.212217 0.07717,0.279741 0.08682,0.05788 0.540191,0.202572 0.588422,0.173633 0.588422,0.694531 0,1.147906 -2.749186,1.147906 -1.562695,0 -2.295812,-0.212218 -0.675238,-0.202571 -0.675238,-0.887456 0,-0.299035 0.144694,-0.463021 0.15434,-0.163987 0.540191,-0.299035 0.627007,-0.221864 0.945334,-0.617361 0.327973,-0.405143 0.926041,-1.717035 l 1.360124,-2.980697 q 0.752409,-1.639866 1.003212,-2.450152 0.260449,-0.819933 0.270096,-1.60128 0.0096,-0.829579 0.09646,-1.147906 0.09646,-0.327973 0.41479,-0.636654 0.665592,-0.675239 1.697743,-0.675239 0.974273,0 1.861729,0.762055 1.234723,1.041797 3.588412,6.067503 z m -6.713802,1.21543 h 1.890668 q 0.520899,0 0.520899,-0.231511 0,-0.318327 -0.72347,-1.562695 -0.327974,-0.56913 -0.501606,-0.762055 -0.173633,-0.192926 -0.366559,-0.192926 -0.347265,0 -0.578776,0.6463 -0.03859,0.08682 -0.279741,0.684885 -0.405144,0.983919 -0.405144,1.176845 0,0.241157 0.443729,0.241157 z" />
      <path
         id="path873"
         style="font-style:normal;font-variant:normal;font-weight:normal;font-stretch:normal;font-size:19.75555611px;font-family:'Cooper Black';-inkscape-font-specification:'Cooper Black, Normal';font-variant-ligatures:normal;font-variant-caps:normal;font-variant-numeric:normal;font-feature-settings:normal;text-align:start;writing-mode:lr-tb;text-anchor:start;fill:url(#linearGradient892);fill-opacity:1;stroke-width:0.26458332"
         d="m 62.035704,79.252347 -1.2926,0.0096 q -1.360124,0.01929 -1.987131,0.05788 -0.559484,0.04823 -0.80064,0.04823 -0.588423,0 -0.935688,-0.299035 -0.33762,-0.299034 -0.33762,-0.713823 0,-0.270096 0.125402,-0.424436 0.125401,-0.15434 0.607715,-0.482314 0.279741,-0.192925 0.38585,-0.598068 0.106109,-0.41479 0.231511,-1.765267 0.183279,-2.102887 0.183279,-5.180046 0,-1.128613 -0.15434,-1.495171 -0.144694,-0.376205 -0.694532,-0.617361 -0.636653,-0.270096 -0.636653,-0.790994 0,-0.424436 0.376204,-0.694532 0.385851,-0.270095 0.983919,-0.270095 0.327973,0 0.839226,0.02894 0.848871,0.03858 1.83279,0.03858 0.723471,0 2.845649,-0.05788 0.665593,-0.01929 1.205784,-0.01929 1.282953,0 2.064301,0.212217 0.790994,0.202572 1.36977,0.694532 0.945334,0.80064 0.945334,2.141471 0,0.665593 -0.279741,1.302246 -0.279742,0.627008 -0.752409,1.003212 -0.33762,0.270096 -0.33762,0.49196 0,0.241156 0.405144,0.405143 0.790994,0.318327 1.437294,1.070736 0.665592,0.781347 0.665592,1.958192 0,1.389063 -1.012858,2.536968 -1.340831,1.514464 -3.964616,1.514464 -0.356912,0 -1.755621,-0.04823 -1.273307,-0.04823 -1.562695,-0.05788 z m 0.665592,-10.4662 v 1.987131 q 0,0.472667 0.115755,0.665593 0.125402,0.192925 0.424436,0.192925 0.713824,0 1.051443,-0.434082 0.33762,-0.443728 0.33762,-1.379416 0,-0.906749 -0.347266,-1.398709 -0.347265,-0.501606 -0.983919,-0.501606 -0.337619,0 -0.472667,0.192925 -0.125402,0.183279 -0.125402,0.675239 z m 0,5.55625 v 0.916396 q 0,1.263661 0.183279,1.67845 0.183279,0.41479 0.742763,0.41479 1.466233,0 1.466233,-1.717036 0,-2.141471 -1.639866,-2.141471 -0.424436,0 -0.588422,0.183279 -0.163987,0.183279 -0.163987,0.665592 z" />
      <path
         id="path875"
         style="font-style:normal;font-variant:normal;font-weight:normal;font-stretch:normal;font-size:19.75555611px;font-family:'Cooper Black';-inkscape-font-specification:'Cooper Black, Normal';font-variant-ligatures:normal;font-variant-caps:normal;font-variant-numeric:normal;font-feature-settings:normal;text-align:start;writing-mode:lr-tb;text-anchor:start;fill:url(#linearGradient894);fill-opacity:1;stroke-width:0.26458332"
         d="m 77.871532,69.977308 q 2.47909,0 4.331174,1.418001 1.254015,0.974273 2.035362,2.527322 0.762055,1.543403 0.762055,3.086806 0,2.276519 -1.504817,4.070725 -1.273308,1.52411 -3.327963,2.189703 -1.263661,0.405143 -2.536968,0.405143 -1.668804,0 -3.192915,-0.694531 -1.842437,-0.839226 -2.884234,-2.536969 -1.012858,-1.639865 -1.012858,-3.61735 0,-2.295812 1.302246,-4.051432 1.157553,-1.562696 3.115745,-2.295812 1.311892,-0.501606 2.913173,-0.501606 z m -0.916396,2.768479 q -0.810286,0 -1.282953,0.72347 -0.366558,0.540191 -0.366558,1.282953 0,1.090029 0.443728,2.527323 0.443728,1.427647 1.118967,2.536968 0.299034,0.472667 0.733116,0.752409 0.443729,0.279742 0.897103,0.279742 0.733116,0 1.176845,-0.549838 0.453374,-0.549837 0.453374,-1.44694 0,-1.167198 -0.376204,-2.517676 -0.376205,-1.350477 -0.974273,-2.305458 -0.366558,-0.588422 -0.848872,-0.926041 -0.482313,-0.33762 -0.974273,-0.356912 z" />
      <path
         id="path877"
         style="font-style:normal;font-variant:normal;font-weight:normal;font-stretch:normal;font-size:19.75555611px;font-family:'Cooper Black';-inkscape-font-specification:'Cooper Black, Normal';font-variant-ligatures:normal;font-variant-caps:normal;font-variant-numeric:normal;font-feature-settings:normal;text-align:start;writing-mode:lr-tb;text-anchor:start;fill:url(#linearGradient896);fill-opacity:1;stroke-width:0.26458332"
         d="m 99.221793,74.572601 v 2.35369 q 0,2.131825 -0.31833,3.019281 -0.684884,1.871376 -3.009634,2.710601 -1.408355,0.520899 -3.183268,0.520899 -3.096452,0 -4.958182,-1.475879 -0.906749,-0.72347 -1.254015,-1.678451 -0.347265,-0.95498 -0.347265,-2.758832 0,-0.704178 0.04823,-2.315104 0.02894,-1.13826 0.02894,-1.504818 0,-0.80064 -0.125402,-1.109321 -0.115755,-0.30868 -0.520898,-0.578776 -0.636654,-0.414789 -0.636654,-0.926042 0,-0.376204 0.318327,-0.665592 0.327973,-0.289388 0.858518,-0.395497 1.061089,-0.212218 2.508029,-0.212218 1.591635,0 2.643078,0.241157 1.03215,0.23151 1.03215,1.051443 0,0.405143 -0.299034,0.6463 -0.06752,0.05788 -0.578776,0.299034 -0.30868,0.135048 -0.424436,0.49196 -0.106109,0.356912 -0.106109,1.176844 0,0.839226 -0.07717,3.626997 -0.04823,1.659158 0.897103,2.527322 0.771702,0.713824 1.987131,0.713824 0.771702,0 1.398709,-0.279742 0.627007,-0.289388 0.954981,-0.781347 0.260449,-0.376205 0.356911,-0.839226 0.09646,-0.463021 0.09646,-1.263661 v -2.122179 q -0.04823,-2.440505 -0.144694,-2.855295 -0.08682,-0.424436 -0.617361,-0.665592 -0.501606,-0.221865 -0.684885,-0.405144 -0.183279,-0.183279 -0.183279,-0.453374 0,-0.578776 0.684885,-0.839225 0.694531,-0.270096 2.218641,-0.270096 1.495175,0 2.16076,0.260449 0.675246,0.26045 0.675246,0.829579 0,0.279742 -0.11575,0.41479 -0.11576,0.135048 -0.607726,0.414789 -0.511247,0.289388 -0.588415,0.627008 -0.0675,0.327973 -0.0868,2.469444 z" />
      <path
         id="path879"
         style="font-style:normal;font-variant:normal;font-weight:normal;font-stretch:normal;font-size:19.75555611px;font-family:'Cooper Black';-inkscape-font-specification:'Cooper Black, Normal';font-variant-ligatures:normal;font-variant-caps:normal;font-variant-numeric:normal;font-feature-settings:normal;text-align:start;writing-mode:lr-tb;text-anchor:start;fill:url(#linearGradient898);fill-opacity:1;stroke-width:0.26458332"
         d="m 106.56916,65.540821 h 5.08359 q 0.81993,-0.02894 1.49517,-0.221864 0.28939,-0.07717 0.51125,-0.07717 0.78135,0 1.51446,1.157552 0.74277,1.157552 0.74277,2.382628 0,0.839226 -0.51126,1.225076 -0.38585,0.289388 -0.92604,0.289388 -0.51125,0 -0.88745,-0.279741 -0.37621,-0.289388 -0.74277,-0.945335 -0.31832,-0.598068 -0.5016,-0.781347 -0.18328,-0.183279 -0.44373,-0.183279 -0.35691,0 -0.51125,0.299034 -0.15434,0.299034 -0.15434,0.983919 v 5.40191 q 0,0.829579 0.17363,1.205784 0.17363,0.376204 0.65595,0.578776 0.52089,0.221864 0.70417,0.424435 0.19293,0.192926 0.19293,0.540191 0,0.694532 -0.94534,1.032151 -0.93568,0.337619 -2.88423,0.337619 -2.39227,0 -3.54983,-0.395497 -0.97427,-0.327973 -0.97427,-1.061089 0,-0.395497 0.34727,-0.617361 0.0868,-0.04823 0.68488,-0.231511 0.36656,-0.106109 0.50161,-0.405143 0.14469,-0.299034 0.23151,-1.147906 0.0772,-0.752409 0.14469,-2.430859 0.0675,-1.688097 0.0675,-2.922819 0,-0.868164 -0.13505,-1.234723 -0.13505,-0.366558 -0.44373,-0.366558 -0.37621,0 -0.73312,0.540191 -0.6463,0.98392 -1.06109,1.302246 -0.49196,0.376205 -0.95498,0.376205 -0.5209,0 -0.85851,-0.385851 -0.33762,-0.395497 -0.33762,-1.003212 0,-0.598068 0.27009,-1.311892 0.2701,-0.72347 0.72347,-1.331185 0.73312,-0.983919 1.44694,-0.983919 0.19293,0 0.44373,0.05788 0.5209,0.106109 0.84887,0.144694 0.33762,0.03858 0.7717,0.03858 z" />
    </g>
  </g>
</svg>
