<svg width="48.581mm" height="42.608mm" version="1.1" viewBox="0 0 48.581 42.608" xmlns="http://www.w3.org/2000/svg">
 <g transform="translate(-124.12 -41.256)">
  <g transform="translate(6.062 -83.636)">
   <path d="m142.62 160.12c-41.22 1.1604 27.224 18.632-6.8059-4.6579-34.03-23.29 7.0353 34.186-6.8059-4.6579-0.7833-2.1982-1.775-5.5163-2.4427-7.054-11.13-25.634-6.2061 36.464 4.7695-0.85821 11.634-39.561-30.417 14.301 1.9259-7.5781 34.155-23.105 49.735 0.33589 8.5126 0.0889-39.587-0.23717-26.072-22.36 8.6596-0.13124 33.361 21.352-11.356-31.831 2.4848 7.0128 13.841 38.844 14.402-31.792 2.7682 7.7687s26.132-20.134-6.5331 5.0334c-32.665 25.167 34.687 3.873-6.5331 5.0334z" fill="#6c5353" opacity=".97" stroke-linejoin="round" stroke-width=".1" style="paint-order:normal"/>
  </g>
 </g>
</svg>
