<svg width="159.69mm" height="98.799mm" version="1.1" viewBox="0 0 159.69 98.799" xmlns="http://www.w3.org/2000/svg">
 <g transform="translate(-4.0642 -123.62)">
  <g transform="translate(197.3 93.738)">
   <g transform="translate(-210.91 -60.476)">
    <g transform="translate(338.67 17.387)">
     <g transform="translate(-327.04 -118.25)">
      <g transform="translate(183.41 145.47)">
       <g transform="translate(-205.4 -71.301)">
        <path d="m99.616 212.33c0 0.41226-0.20537 0.74415-0.4607 0.74415h-49.759c-0.25532 0-0.46092-0.33189-0.46092-0.74415v-50.162l-11.268 0.0369 34.426-21.886 38.79 21.886-11.268 3.1e-4z" fill-opacity="0" stroke="#3953a1" stroke-width="5.5734"/>
        <g transform="matrix(1.1483,0,0,1.1364,14.604,-109.8)" fill="#3953a1" stroke="#3953a1" stroke-width="5" aria-label="KN">
         <path d="m108.01 282.92h-6.7965l-14.436-17.462q-0.74414-0.91778-1.017-1.4387h-0.12402v18.901h-4.9609v-38.422h4.9609v18.083h0.12402q0.42168-0.66972 1.017-1.4139l13.94-16.669h6.1268l-16.123 18.43z"/>
         <path d="m148.27 282.92h-5.8787l-19.323-29.89q-0.81856-1.265-1.3146-2.5053h-0.14883q0.19844 1.2898 0.19844 5.3826v27.012h-4.9113v-38.422h6.226l18.802 29.369q1.3394 2.0836 1.5875 2.6541h0.0992q-0.24805-1.6371-0.24805-5.6059v-26.417h4.9113z"/>
        </g>
        <g transform="scale(1.0464 .95566)" fill="#3953a1" stroke-width=".30225" aria-label="Y">
         <path d="m84.053 169.64c0-2.2439 0.40622-3.3659 1.2187-3.3659 0.23213 0 0.85114 0.27082 1.857 0.81245 0.81245 0.50295 1.2187 1.1606 1.2187 1.9731 0 2.4374-1.1993 6.0547-3.598 10.852-2.3987 4.7586-4.3911 8.1051-5.9773 10.04-0.6577 0.81245-1.18 1.5282-1.5669 2.1472-0.34819 0.58032-0.6577 1.18-0.92851 1.799l-1.6249 4.0622c-0.85114 2.1278-1.7796 4.3717-2.7855 6.7317l-4.7006 11.258c-0.54163 1.238-1.238 1.857-2.0892 1.857-0.50294 0-0.98654-0.23213-1.4508-0.69638-0.42557-0.46426-0.63835-0.98655-0.63835-1.5669 0-1.5862 2.1472-6.9058 6.4416-15.959l2.5299-8.151-8.6813-8.9104c-4.4104-4.4878-7.312-7.5248-8.7048-9.111-1.3541-1.5862-2.0311-2.7468-2.0311-3.4819 0-0.34819 0.11606-0.67704 0.34819-0.98654 0.23213-0.34819 0.52229-0.52229 0.87048-0.52229 0.61901 0 1.7603 0.75442 3.4239 2.2632 1.6636 1.4701 4.7393 4.4685 9.2271 8.995 4.836 4.7586 7.5828 7.1379 8.2405 7.1379 0.42557 0 0.83179-0.15475 1.2187-0.46425 0.42557-0.30951 0.87048-0.87048 1.3347-1.6829 0.50294-0.81245 0.9672-1.6442 1.3928-2.4954 0.46426-0.88982 1.122-2.1665 1.9731-3.8301 0.88982-1.6636 1.741-3.2304 2.5534-4.7006 0.61901-1.238 0.92851-2.5728 0.92851-4.0042z" fill="#3953a1" stroke-width=".30225"/>
        </g>
        <path transform="matrix(1.1954,0,0,1.0917,-19.982,-55.233)" d="m149.82 184.86-10.941-2.5174-8.2762 7.5855-0.98666-11.183-9.7717-5.5271 10.331-4.3941 2.2369-11.001 7.3715 8.4674 11.154-1.2722-5.775 9.6272z" fill="#917c6f" stroke-width=".26458"/>
       </g>
      </g>
     </g>
    </g>
   </g>
  </g>
 </g>
</svg>
