<svg width="165.56mm" height="98.797mm" version="1.1" viewBox="0 0 165.56 98.797" xmlns="http://www.w3.org/2000/svg">
 <g transform="translate(-27.523 -117.06)">
  <path d="m99.616 212.33c0 0.41226-0.20537 0.74415-0.4607 0.74415h-49.759c-0.25532 0-0.46092-0.33189-0.46092-0.74415v-50.162l-11.268 0.0369 34.426-21.886 38.79 21.886-11.268 3.1e-4z" fill-opacity="0" stroke="#3953a1" stroke-width="5.5734"/>
  <g transform="matrix(1.1483 0 0 1.1364 14.604 -109.8)" fill="#3953a1" stroke="#3953a1" stroke-width="5" aria-label="KN">
   <path d="m108.01 282.92h-6.7965l-14.436-17.462q-0.74414-0.91778-1.017-1.4387h-0.12402v18.901h-4.9609v-38.422h4.9609v18.083h0.12402q0.42168-0.66972 1.017-1.4139l13.94-16.669h6.1268l-16.123 18.43z"/>
   <path d="m148.27 282.92h-5.8787l-19.323-29.89q-0.81856-1.265-1.3146-2.5053h-0.14883q0.19844 1.2898 0.19844 5.3826v27.012h-4.9113v-38.422h6.226l18.802 29.369q1.3394 2.0836 1.5875 2.6541h0.0992q-0.24805-1.6371-0.24805-5.6059v-26.417h4.9113z"/>
  </g>
  <text transform="scale(1.0464 .95566)" x="48.421688" y="211.77165" fill="#3953a1" font-family="'Old English Text MT'" font-size="58.032px" letter-spacing="0px" stroke-width=".30225" word-spacing="0px" style="line-height:1.25" xml:space="preserve"><tspan x="48.421688" y="211.77165" fill="#3953a1" font-family="'Old English Text MT'" font-size="58.032px" stroke-width=".30225">Y</tspan></text>
  <path transform="matrix(1.1954,0,0,1.0917,-19.982,-55.233)" d="m149.82 184.86-10.941-2.5174-8.2762 7.5855-0.98666-11.183-9.7717-5.5271 10.331-4.3941 2.2369-11.001 7.3715 8.4674 11.154-1.2722-5.775 9.6272z" fill="#917c6f" stroke-width=".26458"/>
 </g>
</svg>
